<?xml version="1.0" encoding="iso-8859-1"?>
<!-- Generator: Adobe Illustrator 19.0.0, SVG Export Plug-In . SVG Version: 6.00 Build 0)  -->
<svg version="1.1" id="Capa_1" xmlns="http://www.w3.org/2000/svg" xmlns:xlink="http://www.w3.org/1999/xlink" x="0px" y="0px"
	 viewBox="0 0 512 512" style="enable-background:new 0 0 512 512;" xml:space="preserve">
<circle style="fill:#FF1493;" cx="256" cy="256" r="256"/>
<path style="fill:#FFFBEB;" d="M458.587,355.801l-81.052,16.391c-8.471,1.713-16.728-3.766-18.441-12.237
	s3.766-16.728,12.237-18.441l81.052-16.391c3.292-0.666,5.427-3.885,4.762-7.176L425.812,163.01
	c-0.666-3.292-3.884-5.428-7.176-4.762l-81.052,16.391c-8.471,1.713-16.727-3.765-18.441-12.237
	c-1.713-8.471,3.766-16.728,12.237-18.441l81.052-16.391c20.206-4.086,39.971,9.029,44.057,29.236l31.333,154.937
	C491.909,331.951,478.793,351.715,458.587,355.801z"/>
<g>
	<path style="fill:#D8E0C9;" d="M319.144,162.403c1.713,8.472,9.97,13.95,18.441,12.237l70.405-14.238l-6.204-30.677l-70.405,14.238
		C322.91,145.675,317.431,153.932,319.144,162.403z"/>
	<path style="fill:#D8E0C9;" d="M441.737,327.277l-70.405,14.238c-8.471,1.713-13.95,9.97-12.237,18.441s9.97,13.95,18.441,12.237
		l70.405-14.238L441.737,327.277z"/>
</g>
<path style="fill:#FFFBEB;" d="M447.64,425.97c-15.26,17.26-32.9,32.53-52.58,45.27l-131.93,26.67l-51.71,10.46h-0.01
	c-21.97-3.9-43.19-10.64-63.15-19.93c-2.41-4.22-4.19-8.88-5.21-13.9L84.06,182.85l-9.45-46.73c-0.72-3.56,1.59-7.03,5.15-7.75
	l65.04-13.15l225.85-45.68c3.56-0.72,7.04,1.59,7.76,5.15l11.61,57.41l6.2,30.68l2.34,11.56l31.41,155.31v0.01l6.2,30.67
	l10.67,52.77C447.72,417.44,447.96,421.76,447.64,425.97z"/>
<path style="fill:#D8E0C9;" d="M263.13,497.91l-51.71,10.46h-0.01c-21.97-3.9-43.19-10.64-63.15-19.93
	c-2.41-4.22-4.19-8.88-5.21-13.9L84.06,182.85l-9.45-46.73c-0.72-3.56,1.59-7.03,5.15-7.75l65.04-13.15
	c-3.57,0.72-5.87,4.19-5.15,7.75l2.42,11.96l32.82,162.28l3.53,17.45l29.67,146.73c0.1,0.51,0.22,1.02,0.34,1.53
	c0.12,0.52,0.25,1.04,0.39,1.55c0.09,0.31,0.18,0.63,0.27,0.94c0.2,0.68,0.41,1.36,0.65,2.02c0.14,0.42,0.29,0.83,0.44,1.23
	c0.04,0.12,0.08,0.23,0.13,0.35c0.2,0.52,0.41,1.03,0.63,1.54c0.25,0.58,0.51,1.15,0.78,1.72s0.55,1.12,0.84,1.67
	c0,0.01,0.01,0.02,0.01,0.03c0.29,0.54,0.58,1.07,0.89,1.6c0.03,0.05,0.06,0.11,0.09,0.16c0.25,0.43,0.51,0.85,0.77,1.27
	c0.09,0.15,0.18,0.29,0.28,0.43c0.27,0.43,0.55,0.85,0.85,1.27c0.27,0.4,0.56,0.8,0.85,1.19c0.11,0.15,0.22,0.3,0.33,0.44
	c0.28,0.38,0.58,0.76,0.88,1.13l0.15,0.18c0.36,0.45,0.73,0.89,1.11,1.32c0.45,0.5,0.9,0.99,1.35,1.47c0.38,0.4,0.77,0.78,1.16,1.16
	c0.47,0.46,0.95,0.91,1.43,1.34h0.01C233.32,496.42,248.12,500.95,263.13,497.91z"/>
<path style="fill:#F3D75C;" d="M201.745,491.167c-19.192,3.881-37.897-8.531-41.778-27.723L96.93,151.728
	c-0.823-4.071,1.809-8.038,5.88-8.861l252.238-51.009c4.071-0.823,8.038,1.809,8.861,5.88l63.038,311.716
	c3.881,19.192-8.531,37.897-27.723,41.778L201.745,491.167z"/>
<g>
	<path style="fill:#E8C63A;" d="M142.069,134.927l-39.259,7.939c-4.071,0.823-6.703,4.791-5.88,8.861l63.038,311.716
		c3.881,19.192,22.586,31.604,41.778,27.723l20.965-4.24c-7.251-6.483-12.546-15.276-14.622-25.542L142.069,134.927z"/>
	<path style="fill:#E8C63A;" d="M363.908,97.737c-0.823-4.071-4.791-6.703-8.861-5.88l-252.237,51.01
		c-4.071,0.823-6.703,4.791-5.88,8.861l9.516,47.057c0.247,0.745,0.496,1.515,0.752,2.332c3.487,11.171,6.551,25.208,9.795,40.069
		c4.067,18.635,8.273,37.904,13.7,52.787c4.77,13.082,12.987,30.473,29.21,30.471c1.412,0,2.849-0.146,4.269-0.433
		c12.269-2.482,19.543-13.235,21.621-31.958c1.5-13.517,0.529-30.166-0.499-47.793c-1.814-31.117-4.073-69.843,11.475-72.989
		c12.076-2.443,23.317-8.033,32.51-16.165c1.135-1.004,2.637-1.557,4.229-1.557c0.438,0,0.877,0.042,1.305,0.127
		c3.131,0.618,6.335,0.932,9.524,0.932c3.283,0,6.592-0.333,9.832-0.988c11.235-2.273,21.393-8.423,28.602-17.317
		c1.403-1.732,3.442-2.726,5.592-2.726c1.384,0,2.748,0.417,3.946,1.208c5.314,3.505,11.1,6.338,17.195,8.418l0.191,0.063
		c18.062,5.76,28.794,23.167,38.263,38.526c9.013,14.619,17.524,28.427,32.031,28.426c0.002,0,0.005,0,0.007,0
		c2.144-0.001,4.307-0.337,6.461-0.987L363.908,97.737z"/>
</g>
<g>
	<circle style="fill:#FCE583;" cx="266.77" cy="341.12" r="21.11"/>
	<circle style="fill:#FCE583;" cx="218.75" cy="278.45" r="14.189"/>
	<circle style="fill:#FCE583;" cx="224.2" cy="403.2" r="11.853"/>
	<circle style="fill:#FCE583;" cx="359.1" cy="359.95" r="33.385"/>
	<circle style="fill:#FCE583;" cx="249.46" cy="182.83" r="9.44"/>
</g>
<path style="fill:#FFFBEB;" d="M420.428,89.319c-2.587-12.785-11.193-22.807-22.266-27.737c-0.27-1.681-0.605-3.365-1.013-5.05
	c-7.962-32.913-40.454-54.473-73.875-49.022c-10.668,1.74-20.267,5.945-28.342,11.92c-4.933,3.65-11.335,4.447-17.185,2.593
	c-6.561-2.08-13.726-2.572-20.951-1.11c-0.544,0.11-1.067,0.263-1.602,0.393c-10.989-9.535-26.116-14.057-41.478-10.949
	c-11.422,2.311-21.066,8.472-27.908,16.84c-13.525-20.034-38.207-31.053-63.376-25.96C99.607,5.856,82.305,22.529,75.798,43.283
	c-2.035,6.49-6.5,11.986-12.657,14.874c-17.774,8.338-30.095,26.46-30.095,47.484c0,1.346,0.052,2.68,0.153,4
	c0.348,4.538-0.615,9.102-3.079,12.929c-6.16,9.566-8.463,21.628-5.225,33.671c5.466,20.332,26.122,33.739,46.925,30.499
	c9.174-1.429,17.118-5.702,23.165-11.734l0.009,0.006c31.896-18.718,31.163,146.487,67.193,139.196
	c36.03-7.29-12.867-143.541,32.597-152.74c10.822-2.19,20.365-7.161,28.049-14.014c3.775-3.367,8.931-4.577,13.893-3.593
	c4.96,0.983,10.192,1.023,15.458-0.043c9.383-1.899,17.309-6.981,22.881-13.894c5.552-6.888,15.361-8.36,22.747-3.488
	c4.625,3.051,9.643,5.501,14.92,7.302c42.209,13.46,48.393,76.009,72.677,65.239c12.57-5.575,16.688-36.539,17.004-68.739
	C416.073,122.02,423.77,105.837,420.428,89.319z"/>
</svg>

