<?xml version="1.0" encoding="iso-8859-1"?>
<!-- Generator: Adobe Illustrator 19.0.0, SVG Export Plug-In . SVG Version: 6.00 Build 0)  -->
<svg version="1.1" id="Capa_1" xmlns="http://www.w3.org/2000/svg" xmlns:xlink="http://www.w3.org/1999/xlink" x="0px" y="0px"
	 viewBox="0 0 512 512" style="enable-background:new 0 0 512 512;" xml:space="preserve">
<g>
	<g>
		<path style="fill:#F5F5F5" d="M392,50.501c-4.143,0-7.5,3.358-7.5,7.5v24.373c0,4.142,3.358,7.5,7.5,7.5c4.143,0,7.5-3.358,7.5-7.5V58.001
			C399.5,53.859,396.143,50.501,392,50.501z"/>
	</g>
</g>
<g>
	<g>
		<path style="fill:#F5F5F5" d="M392,136.126c-4.143,0-7.5,3.358-7.5,7.5V168c0,4.142,3.358,7.499,7.5,7.499c4.143,0,7.5-3.358,7.5-7.5v-24.373
			C399.5,139.484,396.143,136.126,392,136.126z"/>
	</g>
</g>
<g>
	<g>
		<path style="fill:#F5F5F5" d="M436.194,68.806c-2.93-2.929-7.678-2.929-10.607,0l-17.234,17.235c-2.929,2.929-2.929,7.678,0,10.606
			c1.464,1.465,3.384,2.197,5.303,2.197s3.839-0.732,5.304-2.197l17.234-17.235C439.123,76.483,439.123,71.734,436.194,68.806z"/>
	</g>
</g>
<g>
	<g>
		<path style="fill:#F5F5F5" d="M375.648,129.353c-2.93-2.93-7.678-2.929-10.608,0l-17.234,17.235c-2.929,2.929-2.929,7.678,0,10.606
			c1.465,1.464,3.385,2.197,5.304,2.197c1.919,0,3.839-0.732,5.304-2.197l17.234-17.235
			C378.577,137.03,378.577,132.281,375.648,129.353z"/>
	</g>
</g>
<g>
	<g>
		<path style="fill:#F5F5F5" d="M447,105.5h-24.373c-4.143,0-7.5,3.358-7.5,7.5c0,4.142,3.357,7.5,7.5,7.5H447c4.143,0,7.5-3.358,7.5-7.5
			C454.5,108.858,451.143,105.5,447,105.5z"/>
	</g>
</g>
<g>
	<g>
		<path style="fill:#F5F5F5" d="M361.374,105.5h-24.373c-4.143,0-7.5,3.358-7.5,7.5c0,4.142,3.357,7.5,7.5,7.5h24.373c4.143,0,7.5-3.358,7.5-7.5
			C368.874,108.858,365.517,105.5,361.374,105.5z"/>
	</g>
</g>
<g>
	<g>
		<path style="fill:#F5F5F5" d="M436.195,146.588l-17.234-17.235c-2.929-2.929-7.677-2.93-10.607,0c-2.929,2.929-2.929,7.677,0,10.606l17.233,17.235
			c1.465,1.465,3.384,2.197,5.304,2.197c1.919,0,3.839-0.732,5.304-2.197C439.124,154.265,439.124,149.517,436.195,146.588z"/>
	</g>
</g>
<g>
	<g>
		<path style="fill:#F5F5F5" d="M375.648,86.041l-17.234-17.235c-2.929-2.929-7.677-2.93-10.607,0c-2.929,2.929-2.929,7.677,0,10.606l17.233,17.235
			c1.465,1.465,3.384,2.197,5.304,2.197c1.919,0,3.839-0.732,5.304-2.197C378.577,93.718,378.577,88.97,375.648,86.041z"/>
	</g>
</g>
<g>
	<g>
		<path style="fill:#F5F5F5" d="M148.002,332.497c-4.143,0-7.5,3.358-7.5,7.5v28.804c0,4.142,3.357,7.5,7.5,7.5s7.5-3.358,7.5-7.5v-28.804
			C155.502,335.855,152.145,332.497,148.002,332.497z"/>
	</g>
</g>
<g>
	<g>
		<path style="fill:#F5F5F5" d="M148.002,433.691c-4.143,0-7.5,3.358-7.5,7.5v28.804c0,4.142,3.357,7.5,7.5,7.5s7.5-3.358,7.5-7.5v-28.804
			C155.502,437.049,152.145,433.691,148.002,433.691z"/>
	</g>
</g>
<g>
	<g>
		<path style="fill:#F5F5F5" d="M199.268,353.732c-2.929-2.929-7.677-2.929-10.607,0l-20.368,20.367c-2.929,2.929-2.929,7.678,0,10.606
			c1.464,1.466,3.383,2.197,5.303,2.197c1.919,0,3.839-0.732,5.304-2.197l20.368-20.367
			C202.197,361.409,202.197,356.661,199.268,353.732z"/>
	</g>
</g>
<g>
	<g>
		<path style="fill:#F5F5F5" d="M127.713,425.287c-2.929-2.928-7.677-2.929-10.608,0l-20.368,20.367c-2.929,2.929-2.929,7.677,0,10.606
			c1.465,1.465,3.384,2.197,5.304,2.197c1.919,0,3.839-0.732,5.304-2.197l20.368-20.367
			C130.642,432.964,130.642,428.215,127.713,425.287z"/>
	</g>
</g>
<g>
	<g>
		<path style="fill:#F5F5F5" d="M213.002,397.497h-28.804c-4.143,0-7.5,3.358-7.5,7.5c0,4.142,3.357,7.5,7.5,7.5h28.804c4.143,0,7.5-3.358,7.5-7.5
			C220.502,400.855,217.144,397.497,213.002,397.497z"/>
	</g>
</g>
<g>
	<g>
		<path style="fill:#F5F5F5" d="M111.807,397.496H83.003c-4.143,0-7.5,3.358-7.5,7.5c0,4.142,3.357,7.5,7.5,7.5h28.804c4.143,0,7.5-3.357,7.5-7.5
			C119.307,400.854,115.95,397.496,111.807,397.496z"/>
	</g>
</g>
<g>
	<g>
		<path style="fill:#F5F5F5" d="M199.268,445.654l-20.369-20.367c-2.93-2.929-7.678-2.929-10.607,0c-2.929,2.929-2.929,7.678,0,10.606l20.368,20.367
			c1.465,1.464,3.385,2.197,5.304,2.197s3.839-0.732,5.304-2.197C202.197,453.331,202.197,448.582,199.268,445.654z"/>
	</g>
</g>
<g>
	<g>
		<path style="fill:#F5F5F5" d="M127.713,374.099l-20.369-20.367c-2.93-2.929-7.678-2.929-10.607,0c-2.929,2.929-2.929,7.678,0,10.606l20.368,20.367
			c1.465,1.464,3.385,2.197,5.304,2.197c1.919,0,3.839-0.732,5.304-2.197C130.642,381.776,130.642,377.027,127.713,374.099z"/>
	</g>
</g>
<g>
	<g>
		<path style="fill:#F5F5F5" d="M282.877,116.342c-1.054-3.563-3.382-6.455-6.557-8.143L75.708,1.54c-3.175-1.688-6.874-1.999-10.418-0.881
			c-3.926,1.241-7.301,4.162-9.256,8.009c-5.124,10.065-14.629,32.138-20.711,66.88c-3.07,17.543,3.525,37.04,19.604,57.95
			c20.148,26.203,23.562,61.986,8.698,91.161c-1.881,3.691-0.413,8.207,3.278,10.087c3.688,1.881,8.207,0.413,10.087-3.278
			c10.515-20.638,13.247-44.076,8.613-66.176c11.922,10.28,21.308,16.651,21.783,16.972c0.437,0.295,0.903,0.542,1.392,0.74
			c0.627,0.253,11.115,4.449,26.191,8.552c-21.417,8.722-39.626,24.652-50.819,45.706l-16.564,31.153l-7.969-4.237l2.303-4.331
			c1.944-3.657,0.557-8.199-3.102-10.143c-3.656-1.946-8.199-0.556-10.142,3.101l-2.303,4.332l-11.056-5.878
			c-11.448-6.088-25.717-1.725-31.805,9.725l-2.254,4.241c-1.343,2.524-1.621,5.421-0.786,8.155c0.836,2.735,2.687,4.98,5.212,6.322
			l79.196,42.107c1.597,0.849,3.313,1.252,5.008,1.252c3.833,0,7.546-2.063,9.469-5.677l2.256-4.243
			c6.087-11.45,1.725-25.717-9.725-31.804l-11.056-5.878l16.564-31.153c15.546-29.24,47.024-46.868,80.345-45.117
			c3.383,0.232,6.666,0.355,9.835,0.355c15.658,0,28.681-2.845,39.002-8.486c0.032-0.017,0.063-0.035,0.095-0.052
			c0.916-0.503,1.811-1.028,2.684-1.576c0.138-0.086,0.276-0.171,0.413-0.258c0.765-0.49,1.511-0.998,2.242-1.522
			c0.189-0.135,0.382-0.266,0.569-0.404c0.69-0.509,1.361-1.039,2.021-1.58c0.186-0.152,0.379-0.297,0.562-0.451
			c0.818-0.691,1.616-1.403,2.386-2.144c0.045-0.044,0.089-0.088,0.134-0.131c0.951-0.918,1.88-1.827,2.797-2.732
			c0.241-0.238,0.481-0.477,0.721-0.716c0.827-0.826,1.642-1.644,2.443-2.456c0.149-0.151,0.299-0.302,0.448-0.453
			c0.943-0.961,1.865-1.914,2.769-2.859c0.205-0.215,0.408-0.43,0.613-0.645c0.72-0.758,1.428-1.509,2.124-2.256
			c0.248-0.266,0.497-0.531,0.743-0.797c0.79-0.854,1.563-1.7,2.32-2.538c0.363-0.401,0.72-0.802,1.079-1.204
			c0.424-0.475,0.844-0.947,1.258-1.417c0.804-0.911,1.595-1.822,2.378-2.733c0.185-0.216,0.375-0.434,0.559-0.649
			c0.527-0.617,1.048-1.234,1.565-1.851c0.057-0.068,0.112-0.135,0.169-0.203c0.557-0.666,1.119-1.332,1.665-1.997
			c0.048-0.059,0.09-0.121,0.136-0.181c10.291-12.58,16.555-22.648,19.941-28.753C283.511,124.723,284.045,120.291,282.877,116.342z
			 M91.924,308.565c-0.001,0-0.001,0-0.002,0l-0.01-0.005C91.916,308.561,91.92,308.563,91.924,308.565z M84.845,294.579
			c4.147,2.205,5.726,7.373,3.522,11.519l-0.239,0.449l-71.61-38.074l0.238-0.448c2.205-4.148,7.374-5.725,11.519-3.522
			L84.845,294.579z M239.022,160.175c-0.912,0.982-1.837,1.963-2.773,2.944c-0.041,0.043-0.081,0.086-0.122,0.128
			c-0.949,0.993-1.91,1.985-2.883,2.976c-0.014,0.014-0.028,0.028-0.042,0.042c-0.884,0.899-1.78,1.796-2.682,2.693
			c-0.182,0.181-0.364,0.361-0.547,0.543c-0.892,0.882-1.792,1.762-2.702,2.64c-0.043,0.042-0.085,0.083-0.128,0.125
			c-0.527,0.508-1.081,0.993-1.646,1.469c-0.165,0.139-0.33,0.277-0.498,0.412c-0.476,0.386-0.966,0.76-1.468,1.125
			c-0.351,0.254-0.71,0.498-1.072,0.74c-0.222,0.15-0.447,0.297-0.673,0.443c-27.804,17.691-84.752,1.596-106.639-7.058
			c-1.622-1.132-6.213-4.397-12.251-9.237h136.14C239.031,160.165,239.027,160.17,239.022,160.175z M268.295,121.219
			c-2.88,5.193-8.029,13.499-16.331,23.94H82.744c-1.157,0-2.269,0.266-3.268,0.749c-3.271-7.589-7.495-14.839-12.658-21.553
			c-13.409-17.44-19.035-32.99-16.72-46.22C55.843,45.32,64.657,24.79,69.404,15.469c0.044-0.086,0.089-0.16,0.133-0.222
			l198.869,105.734C268.379,121.053,268.343,121.133,268.295,121.219z"/>
	</g>
</g>
<g>
	<g>
		<path style="fill:#F5F5F5" d="M511.307,465.796l-1.698-4.496c-4.585-12.128-18.182-18.269-30.312-13.683l-11.713,4.427l-12.475-33.004
			c-11.803-31.227-4.075-66.837,19.686-90.721c18.603-18.7,27.621-37.203,26.802-54.992c-0.315-6.835-0.836-13.586-1.548-20.065
			c-0.453-4.118-4.158-7.091-8.274-6.636c-4.117,0.453-7.088,4.157-6.636,8.274c0.678,6.165,1.174,12.597,1.474,19.116
			c0.572,12.441-5.895,25.998-19.21,40.34H339.182c-4.143,0-7.5,3.358-7.5,7.5c0,4.142,3.357,7.5,7.5,7.5h112.082
			c-18.06,14.753-36.973,24.933-40.766,26.919c-22.783,5.797-81.176,14.514-106.562-6.447c-0.315-0.262-0.626-0.527-0.929-0.797
			c-0.196-0.173-0.396-0.342-0.587-0.519c-0.54-0.503-1.06-1.019-1.56-1.547c-0.097-0.102-0.192-0.205-0.288-0.308
			c-0.527-0.57-1.038-1.151-1.52-1.751c-0.308-0.384-0.606-0.762-0.91-1.144c-0.509-0.64-1.017-1.281-1.518-1.921
			c-0.364-0.465-0.728-0.93-1.085-1.391c-0.76-0.983-1.513-1.966-2.255-2.948c-0.249-0.33-0.491-0.655-0.736-0.983
			c-0.753-1.006-1.499-2.012-2.231-3.017c-0.083-0.115-0.17-0.231-0.253-0.345c-0.853-1.174-1.69-2.348-2.514-3.52
			c-0.066-0.094-0.133-0.188-0.199-0.282h19.831c4.143,0,7.5-3.358,7.5-7.5c0-4.142-3.357-7.5-7.5-7.5h-29.62
			c-6.722-11.165-10.685-19.875-12.851-25.312c-0.035-0.089-0.061-0.171-0.078-0.245l210.684-79.629
			c0.036,0.067,0.072,0.146,0.105,0.239c1.59,4.446,3.071,9.436,4.404,14.832c0.993,4.022,5.058,6.474,9.08,5.483
			c4.02-0.993,6.476-5.059,5.482-9.079c-1.454-5.885-3.083-11.364-4.841-16.283c-1.454-4.07-4.431-7.395-8.169-9.124
			c-3.372-1.56-7.08-1.718-10.443-0.448l-212.527,80.326c-3.364,1.271-6.041,3.844-7.539,7.245
			c-1.659,3.769-1.692,8.233-0.092,12.241c2.592,6.507,7.546,17.329,16.2,31.168c0.012,0.02,0.021,0.042,0.033,0.062
			c0.159,0.254,0.325,0.509,0.485,0.762c0.414,0.656,0.835,1.318,1.265,1.988c0.327,0.509,0.657,1.019,0.99,1.529
			c0.363,0.556,0.735,1.119,1.109,1.684c0.492,0.742,0.99,1.485,1.493,2.228c0.328,0.484,0.659,0.97,0.995,1.46
			c0.352,0.512,0.703,1.024,1.059,1.537c0.584,0.839,1.179,1.686,1.787,2.541c0.341,0.479,0.687,0.957,1.032,1.436
			c0.398,0.552,0.8,1.107,1.208,1.665c0.35,0.479,0.7,0.958,1.054,1.438c0.651,0.88,1.313,1.767,1.99,2.663
			c0.383,0.507,0.773,1.013,1.16,1.519c0.381,0.498,0.764,0.996,1.153,1.498c0.441,0.57,0.884,1.139,1.331,1.708
			c0.298,0.379,0.603,0.762,0.906,1.144c0.441,0.557,0.876,1.114,1.323,1.671c0.641,0.798,1.313,1.563,1.999,2.312
			c0.135,0.148,0.272,0.296,0.41,0.443c0.656,0.7,1.326,1.385,2.02,2.043c0.114,0.108,0.231,0.214,0.346,0.322
			c0.6,0.558,1.215,1.099,1.841,1.627c0.34,0.288,0.685,0.572,1.034,0.853c0.351,0.281,0.709,0.553,1.067,0.825
			c0.866,0.661,1.759,1.301,2.678,1.92c0.055,0.037,0.109,0.074,0.164,0.111c11.133,7.441,26.156,11.831,44.921,13.058
			c33.619,2.198,62.968,23.795,74.771,55.02l12.474,33.004l-11.712,4.427c-12.13,4.584-18.268,18.182-13.684,30.313l1.698,4.492
			c1.011,2.675,3.002,4.796,5.608,5.973c1.406,0.635,2.901,0.954,4.4,0.954c1.276,0,2.558-0.231,3.788-0.697l83.906-31.712
			C510.602,477.502,513.394,471.313,511.307,465.796z M388.049,375.759c15.009-2.092,25.766-4.843,27.04-5.177
			c0.51-0.133,1.004-0.32,1.475-0.557c0.752-0.379,10.792-5.482,23.715-14.026c-7.581,21.846-7.631,46.039,0.799,68.344
			l12.474,33.003l-8.443,3.191l-12.474-33.004C424.208,405.237,408.176,387.13,388.049,375.759z M419.893,495.753l-0.18-0.476
			c-1.66-4.393,0.563-9.318,4.956-10.978l59.93-22.651c0.988-0.374,2.003-0.55,3.002-0.55c3.441,0,6.689,2.102,7.977,5.505
			l0.18,0.477L419.893,495.753z"/>
	</g>
</g>
</svg>
