<?xml version="1.0" encoding="iso-8859-1"?>
<!-- Generator: Adobe Illustrator 19.0.0, SVG Export Plug-In . SVG Version: 6.00 Build 0)  -->
<svg version="1.1" id="Capa_1" xmlns="http://www.w3.org/2000/svg" xmlns:xlink="http://www.w3.org/1999/xlink" x="0px" y="0px"
	 viewBox="0 0 512.002 512.002" style="enable-background:new 0 0 512.002 512.002;" xml:space="preserve">
<g>
	<g>
		<path d="M90.563,398.168c-1.315-2.581-4.014-4.187-6.881-4.159l-22.912,0.282l-13.222-18.716
			c-1.672-2.368-4.538-3.581-7.407-3.128c-2.863,0.452-5.221,2.491-6.083,5.259l-6.812,21.879l-21.886,6.791
			c-2.768,0.859-4.809,3.216-5.264,6.078s0.755,5.736,3.121,7.41l18.703,13.24l-0.304,22.912c-0.039,2.898,1.572,5.567,4.154,6.884
			c1.093,0.557,2.279,0.832,3.459,0.832c1.61,0,3.212-0.51,4.552-1.51l18.372-13.696l21.698,7.369
			c2.746,0.931,5.781,0.225,7.832-1.824c2.051-2.049,2.761-5.084,1.831-7.83l-7.348-21.704l13.714-18.358
			C91.612,403.858,91.878,400.752,90.563,398.168z M60.453,425.633l3.684,10.882l-10.878-3.695
			c-2.374-0.806-4.992-0.393-7.001,1.105l-9.211,6.866l0.152-11.487c0.034-2.506-1.169-4.869-3.215-6.317l-9.376-6.638l10.972-3.405
			c2.393-0.743,4.269-2.617,5.014-5.01l3.415-10.968l6.628,9.382c1.446,2.047,3.779,3.259,6.314,3.221l11.487-0.141l-6.875,9.204
			C60.065,420.641,59.648,423.258,60.453,425.633z"/>
	</g>
</g>
<g>
	<g>
		<path d="M404.46,224.55c-0.896-2.756-3.279-4.765-6.147-5.182l-22.677-3.296l-10.141-20.549c-1.284-2.599-3.931-4.245-6.83-4.245
			c-2.899,0-5.546,1.646-6.83,4.245l-10.141,20.549l-22.677,3.296c-2.869,0.416-5.252,2.426-6.147,5.183
			c-0.896,2.757-0.148,5.783,1.927,7.806l16.409,15.995l-3.874,22.584c-0.489,2.857,0.684,5.745,3.03,7.448
			c2.344,1.704,5.454,1.929,8.02,0.58l20.282-10.664l20.282,10.664c1.115,0.586,2.331,0.874,3.543,0.874
			c1.579,0,3.151-0.49,4.477-1.455c2.346-1.704,3.519-4.591,3.03-7.448l-3.874-22.584l16.409-15.995
			C404.608,230.333,405.355,227.307,404.46,224.55z M372.625,240.241c-1.795,1.75-2.615,4.271-2.19,6.741l1.942,11.323
			l-10.168-5.346c-1.11-0.583-2.327-0.874-3.544-0.874s-2.434,0.291-3.544,0.874l-10.168,5.346l1.942-11.323
			c0.423-2.47-0.395-4.992-2.19-6.741l-8.227-8.019l11.369-1.652c2.481-0.36,4.625-1.918,5.734-4.166l5.084-10.302l5.084,10.302
			c1.109,2.247,3.253,3.806,5.734,4.166l11.369,1.652L372.625,240.241z"/>
	</g>
</g>
<g>
	<g>
		<path d="M253.655,305.84l-16.026-10.786l-0.201-19.317c-0.03-2.898-1.703-5.529-4.315-6.785c-2.613-1.255-5.712-0.919-7.994,0.867
			l-15.21,11.91l-18.432-5.779c-2.767-0.866-5.786-0.087-7.786,2.008c-2.001,2.097-2.64,5.148-1.645,7.871l6.625,18.145
			l-11.192,15.745c-1.68,2.363-1.871,5.474-0.497,8.026c1.376,2.552,4.08,4.105,6.978,3.997l19.305-0.695l11.517,15.509
			c1.452,1.956,3.731,3.076,6.114,3.076c0.453,0,0.911-0.041,1.367-0.124c2.852-0.52,5.161-2.614,5.957-5.401l5.305-18.575
			l18.309-6.159c2.748-0.924,4.732-3.328,5.119-6.201C257.337,310.302,256.06,307.458,253.655,305.84z M224.871,312.377
			c-2.376,0.799-4.206,2.716-4.894,5.127l-2.167,7.587l-4.704-6.335c-1.44-1.939-3.709-3.076-6.114-3.076
			c-0.091,0-0.183,0.001-0.274,0.005l-7.886,0.283l4.571-6.43c1.452-2.043,1.805-4.67,0.946-7.024l-2.707-7.411l7.529,2.361
			c2.392,0.749,5,0.274,6.973-1.27l6.213-4.865l0.082,7.891c0.025,2.506,1.283,4.839,3.363,6.239l6.546,4.406L224.871,312.377z"/>
	</g>
</g>
<g>
	<g>
		<path d="M508.636,107.817L489.681,95.06l-0.238-22.846c-0.03-2.898-1.703-5.529-4.315-6.785s-5.712-0.92-7.994,0.867
			l-17.99,14.086l-21.802-6.834c-2.766-0.866-5.785-0.087-7.786,2.008c-2.001,2.097-2.64,5.148-1.645,7.87l7.837,21.461
			l-13.237,18.623c-1.68,2.363-1.871,5.474-0.497,8.026c1.376,2.552,4.087,4.107,6.978,3.997l22.833-0.821l13.622,18.344
			c1.452,1.956,3.731,3.076,6.114,3.076c0.453,0,0.911-0.041,1.367-0.124c2.852-0.52,5.161-2.614,5.957-5.401l6.275-21.969
			l21.655-7.286c2.748-0.924,4.732-3.328,5.12-6.201C512.318,112.278,511.041,109.434,508.636,107.817z M476.506,115.479
			c-2.376,0.799-4.206,2.716-4.894,5.127l-3.137,10.982l-6.809-9.17c-1.44-1.939-3.709-3.076-6.114-3.076
			c-0.091,0-0.183,0.001-0.274,0.005l-11.414,0.41l6.617-9.309c1.452-2.043,1.805-4.67,0.946-7.023l-3.917-10.728l10.898,3.416
			c2.39,0.748,4.999,0.274,6.973-1.27l8.992-7.042l0.119,11.421c0.025,2.506,1.283,4.839,3.363,6.239l9.476,6.377L476.506,115.479z"
			/>
	</g>
</g>
<g>
	<g>
		<path d="M240.743,422.217l-20.381-17.368l2.755-26.636c0.297-2.884-1.067-5.686-3.52-7.23c-2.453-1.543-5.57-1.561-8.041-0.043
			l-22.817,14.015l-24.481-10.85c-2.649-1.172-5.736-0.742-7.964,1.114c-2.226,1.857-3.206,4.816-2.525,7.635l6.279,26.031
			l-17.885,19.93c-1.936,2.158-2.48,5.227-1.401,7.918c1.078,2.691,3.59,4.537,6.48,4.761l26.698,2.072l13.429,23.167
			c1.368,2.361,3.885,3.797,6.587,3.797c0.17,0,0.339-0.005,0.51-0.017c2.892-0.194,5.423-2.013,6.53-4.692l10.221-24.75
			l26.183-5.612c2.835-0.607,5.078-2.771,5.788-5.583C243.896,427.068,242.948,424.097,240.743,422.217z M204.108,427.018
			c-2.451,0.526-4.486,2.223-5.443,4.54l-5.86,14.189l-7.699-13.281c-1.257-2.169-3.5-3.58-5.999-3.774l-15.305-1.188l10.252-11.425
			c1.673-1.865,2.323-4.435,1.735-6.872l-3.6-14.922l14.034,6.22c2.293,1.015,4.937,0.839,7.072-0.473l13.079-8.035l-1.579,15.269
			c-0.258,2.494,0.728,4.953,2.636,6.58l11.683,9.957L204.108,427.018z"/>
	</g>
</g>
<g>
	<g>
		<path d="M394.673,105.817c-1.221-2.629-3.829-4.337-6.727-4.406l-26.771-0.635l-14.654-22.413
			c-1.586-2.426-4.408-3.742-7.291-3.392c-2.878,0.348-5.308,2.301-6.269,5.035l-8.876,25.264l-25.844,7.01
			c-2.797,0.759-4.923,3.04-5.479,5.884c-0.555,2.845,0.549,5.759,2.854,7.519l21.285,16.248l-1.319,26.745
			c-0.143,2.896,1.371,5.621,3.903,7.03c1.155,0.643,2.43,0.961,3.702,0.961c1.518,0,3.032-0.454,4.33-1.35l22.031-15.222
			l25.028,9.519c2.71,1.031,5.768,0.433,7.892-1.54c2.123-1.974,2.942-4.982,2.112-7.759l-7.669-25.656l16.788-20.862
			C395.517,111.54,395.895,108.446,394.673,105.817z M361.173,135.188l4.397,14.708l-14.349-5.457
			c-2.343-0.889-4.973-0.572-7.036,0.853l-12.629,8.726l0.756-15.332c0.124-2.504-0.993-4.907-2.985-6.428l-12.202-9.315
			l14.815-4.02c2.419-0.656,4.36-2.46,5.192-4.825l5.088-14.483l8.4,12.848c1.372,2.098,3.688,3.386,6.194,3.446l15.347,0.364
			l-9.624,11.96C360.965,130.185,360.456,132.785,361.173,135.188z"/>
	</g>
</g>
<g>
	<g>
		<path d="M393.127,371.881l-26.487-24.095l4.83-35.48c0.391-2.873-0.882-5.718-3.285-7.339c-2.403-1.622-5.518-1.738-8.036-0.303
			l-31.099,17.748l-32.252-15.558c-2.61-1.259-5.71-0.927-7.995,0.857s-3.359,4.71-2.771,7.548l7.269,35.062l-24.762,25.865
			c-2.004,2.094-2.646,5.144-1.656,7.868s3.441,4.65,6.323,4.968l39.572,4.36c4.188,0.462,7.943-2.556,8.403-6.736
			c0.461-4.18-2.556-7.943-6.736-8.403l-24.233-2.669l16.86-17.611c1.733-1.81,2.464-4.358,1.956-6.812l-4.95-23.873l21.96,10.594
			c2.257,1.089,4.906,0.997,7.083-0.245l21.175-12.084l-3.289,24.158c-0.338,2.484,0.568,4.974,2.422,6.661l18.036,16.405
			l-23.992,4.337c-2.466,0.446-4.555,2.077-5.587,4.361l-10.028,22.223l-0.844-1.57c-1.991-3.705-6.608-5.094-10.313-3.104
			c-3.705,1.99-5.095,6.608-3.104,10.313l8.146,15.163c1.33,2.476,3.911,4.011,6.708,4.011c0.087,0,0.176-0.001,0.264-0.004
			c2.897-0.101,5.486-1.837,6.678-4.479l14.728-32.639l35.236-6.37c2.852-0.516,5.164-2.606,5.965-5.393
			C396.123,376.83,395.271,373.831,393.127,371.881z"/>
	</g>
</g>
<g>
	<g>
		<path d="M148.731,288.701c-0.896-2.757-3.279-4.766-6.147-5.183l-26.417-3.839l-11.814-23.938
			c-1.283-2.599-3.931-4.245-6.83-4.245s-5.546,1.646-6.83,4.245L78.88,279.679l-26.417,3.839c-2.868,0.416-5.252,2.426-6.147,5.183
			c-0.896,2.757-0.148,5.783,1.927,7.806l19.115,18.633l-4.512,26.31c-0.489,2.856,0.684,5.744,3.03,7.448
			c2.345,1.704,5.453,1.928,8.02,0.58l23.627-12.422l23.628,12.422c1.115,0.586,2.331,0.874,3.543,0.874
			c1.579,0,3.151-0.49,4.477-1.455c2.346-1.704,3.519-4.591,3.03-7.448l-4.511-26.31l19.115-18.633
			C148.879,294.483,149.626,291.458,148.731,288.701z M114.19,307.028c-1.795,1.75-2.615,4.271-2.19,6.741l2.581,15.047
			l-13.514-7.105c-1.11-0.583-2.327-0.874-3.544-0.874s-2.434,0.291-3.544,0.874l-13.513,7.105l2.581-15.047
			c0.423-2.47-0.395-4.991-2.19-6.74l-10.933-10.657l15.108-2.196c2.481-0.36,4.625-1.918,5.734-4.166l6.756-13.691l6.756,13.691
			c1.109,2.247,3.253,3.806,5.734,4.166l15.108,2.196L114.19,307.028z"/>
	</g>
</g>
<g>
	<g>
		<path d="M280.135,214.706l-14.334-22.519l10.425-24.574c1.132-2.668,0.651-5.749-1.241-7.944
			c-1.892-2.196-4.868-3.129-7.673-2.403l-25.846,6.673l-20.151-17.508c-2.188-1.901-5.265-2.395-7.939-1.274
			c-2.674,1.121-4.479,3.661-4.657,6.555l-1.64,26.644l-22.878,13.753c-2.485,1.494-3.905,4.268-3.666,7.156
			c0.239,2.888,2.098,5.39,4.795,6.454l24.832,9.793l6.01,26.008c0.653,2.825,2.852,5.033,5.674,5.698
			c0.58,0.136,1.166,0.203,1.746,0.203c2.243,0,4.409-0.994,5.874-2.77l16.987-20.591l26.593,2.321
			c2.886,0.254,5.669-1.158,7.172-3.636C281.724,220.268,281.691,217.151,280.135,214.706z M243.792,208.541
			c-2.496-0.217-4.941,0.807-6.536,2.741l-9.715,11.777l-3.437-14.875c-0.565-2.442-2.295-4.45-4.626-5.37l-14.202-5.601
			l13.083-7.867c2.149-1.291,3.523-3.557,3.678-6.059l0.938-15.238l11.525,10.014c1.892,1.644,4.471,2.252,6.899,1.625l14.782-3.816
			l-5.962,14.054c-0.979,2.307-0.76,4.949,0.586,7.064l8.198,12.879L243.792,208.541z"/>
	</g>
</g>
<g>
	<g>
		<path d="M152.949,227.013c-2.506-2.149-6.232-2.401-9.021-0.646c-3.073,1.935-4.379,5.988-2.96,9.349
			c2.611,6.189,11.693,6.113,14.131-0.174C156.255,232.564,155.374,229.091,152.949,227.013z"/>
	</g>
</g>
<g>
	<g>
		<path d="M121.503,387.983c-1.215-2.935-4.233-4.849-7.409-4.694c-3.193,0.155-6.006,2.374-6.922,5.429
			c-1.974,6.582,5.536,12.278,11.363,8.604C121.65,395.358,122.862,391.385,121.503,387.983z"/>
	</g>
</g>
<g>
	<g>
		<path d="M290.89,258.279c-3.113,1.936-4.435,5.98-3.005,9.371c1.253,2.967,4.273,4.888,7.502,4.684
			c3.271-0.206,6.119-2.553,6.915-5.742C303.927,260.079,296.58,254.738,290.89,258.279z"/>
	</g>
</g>
<g>
	<g>
		<path d="M426.507,169.207c-1.293-3.06-4.457-4.99-7.777-4.668c-3.177,0.309-5.854,2.643-6.639,5.726
			c-1.662,6.527,5.742,11.839,11.412,8.313C426.607,176.648,427.934,172.588,426.507,169.207z"/>
	</g>
</g>
<g>
	<g>
		<path d="M162.972,329.619c-2.532-2.549-6.628-2.921-9.616-0.955c-2.568,1.757-3.898,4.955-3.198,8.01
			c0.684,2.983,3.109,5.291,6.123,5.822c3.198,0.564,6.49-1.044,8.016-3.908C165.855,335.663,165.311,331.972,162.972,329.619z"/>
	</g>
</g>
<g>
	<g>
		<path d="M420.12,296.954c-2.508-5.938-11.145-6.201-13.915-0.339c-1.384,2.929-0.724,6.539,1.631,8.771
			c2.505,2.375,6.398,2.759,9.316,0.917C420.282,304.327,421.458,300.368,420.12,296.954z"/>
	</g>
</g>
<g>
	<g>
		<path d="M247.049,83.195c-2.445-1.996-5.95-2.278-8.679-0.683c-3.243,1.894-4.616,6.016-3.184,9.484
			c1.184,2.807,3.975,4.703,7.037,4.701c3.043-0.002,5.862-1.896,7.027-4.701C250.518,88.941,249.614,85.288,247.049,83.195z"/>
	</g>
</g>
<g>
	<g>
		<path d="M284.382,464.625c-1.21-2.865-4.093-4.776-7.218-4.692c-2.984,0.08-5.698,1.937-6.846,4.692
			c-1.247,2.993-0.403,6.571,2.059,8.683c2.407,2.064,5.919,2.419,8.692,0.877C284.401,472.334,285.833,468.139,284.382,464.625z"/>
	</g>
</g>
<g>
	<g>
		<path d="M471.517,42.339c-1.871-6.705-11.456-7.477-14.29-1.058c-1.468,3.327-0.327,7.409,2.726,9.42
			C465.713,54.492,473.381,49.014,471.517,42.339z"/>
	</g>
</g>
<g>
</g>
<g>
</g>
<g>
</g>
<g>
</g>
<g>
</g>
<g>
</g>
<g>
</g>
<g>
</g>
<g>
</g>
<g>
</g>
<g>
</g>
<g>
</g>
<g>
</g>
<g>
</g>
<g>
</g>
</svg>
