<?xml version="1.0" encoding="iso-8859-1"?>
<!-- Generator: Adobe Illustrator 19.0.0, SVG Export Plug-In . SVG Version: 6.00 Build 0)  -->
<svg version="1.1" id="Capa_1" xmlns="http://www.w3.org/2000/svg" xmlns:xlink="http://www.w3.org/1999/xlink" x="0px" y="0px"
	 viewBox="0 0 512.01 512.01" style="enable-background:new 0 0 512.01 512.01;" xml:space="preserve">
<g>
	<g>
		<path d="M511.557,488.09l-39.552-113.432V8.01c0-2.432-1.104-4.72-2.992-6.24c-1.896-1.512-4.392-2.08-6.744-1.568l-70.264,15.616
			L321.741,0.202l-0.008,0.04c-1.4-0.312-2.864-0.296-4.256,0.184l-45.216,15.072l-37.28-14.912c-1.76-0.704-3.712-0.768-5.504-0.16
			l-45.216,15.072l-37.28-14.912c-1.768-0.704-3.704-0.768-5.504-0.16L96.005,15.578L50.533,0.426
			c-2.44-0.84-5.12-0.416-7.208,1.088c-2.088,1.504-3.32,3.928-3.32,6.496v366.648L0.453,488.09
			c-0.296,0.84-0.448,1.736-0.448,2.632v13.288c0,4.424,3.576,8,8,8h352h64h80c4.424,0,8-3.576,8-8v-13.288
			C512.005,489.826,511.853,488.93,511.557,488.09z M328.005,17.986l62.264,13.84c1.144,0.248,2.328,0.248,3.472,0l62.264-13.84
			v86.8c-8.176,1.624-13.368,5.552-17.696,8.88c-4.792,3.68-8.256,6.344-15.952,6.344c-7.688,0-11.16-2.664-15.944-6.344
			c-5.6-4.304-12.568-9.656-25.696-9.656s-20.096,5.36-25.688,9.656c-4.792,3.688-8.248,6.344-15.928,6.344
			c-4.984,0-8.152-1.192-11.096-2.984V17.986z M56.005,19.114l37.472,12.48c1.64,0.544,3.424,0.544,5.064,0l45.216-15.072
			l37.28,14.912c1.76,0.712,3.712,0.768,5.504,0.16l45.216-15.072l37.28,14.912c1.768,0.712,3.704,0.768,5.504,0.16l37.464-12.48
			v87.648c-3.872-1.616-8.52-2.752-14.496-2.752c-13.12,0-20.08,5.352-25.672,9.656c-4.784,3.68-8.248,6.344-15.928,6.344
			c-7.68,0-11.136-2.656-15.92-6.344c-5.592-4.296-12.552-9.656-25.672-9.656s-20.08,5.36-25.672,9.656
			c-4.792,3.688-8.24,6.344-15.92,6.344s-11.136-2.656-15.92-6.344c-5.6-4.296-12.56-9.656-25.672-9.656s-20.072,5.36-25.664,9.656
			c-4.784,3.688-8.24,6.344-15.912,6.344s-11.128-2.656-15.896-6.336c-4.32-3.328-9.496-7.256-17.656-8.88V19.114z M272.005,490.722
			v5.288h-256v-3.936l39.552-113.432c0.296-0.84,0.448-1.736,0.448-2.632V121.458c2.848,1.128,5.192,2.808,7.888,4.888
			c5.6,4.304,12.552,9.664,25.664,9.664s20.08-5.36,25.672-9.664c4.784-3.68,8.24-6.336,15.904-6.336
			c7.68,0,11.136,2.656,15.92,6.344c5.592,4.296,12.552,9.656,25.672,9.656s20.08-5.36,25.672-9.656
			c4.792-3.688,8.24-6.344,15.92-6.344s11.136,2.656,15.92,6.344c5.6,4.296,12.56,9.656,25.672,9.656
			c13.128,0,20.088-5.36,25.68-9.656c4.792-3.688,8.24-6.344,15.92-6.344c6.88,0,10.4,2.192,14.496,5.288v249.36L272.453,488.09
			C272.157,488.93,272.005,489.826,272.005,490.722z M496.005,496.01h-72h-64h-72v-3.936l39.552-113.432
			c0.296-0.84,0.448-1.736,0.448-2.632V134.458c3.16,0.936,6.768,1.552,11.096,1.552c13.128,0,20.088-5.352,25.68-9.656
			c4.784-3.68,8.248-6.344,15.936-6.344c7.688,0,11.16,2.664,15.944,6.344c5.6,4.304,12.56,9.656,25.696,9.656
			s20.104-5.352,25.704-9.656c2.712-2.08,5.072-3.768,7.944-4.904v254.56c0,0.896,0.152,1.792,0.448,2.632l39.552,113.432V496.01z"
			/>
	</g>
</g>
<g>
	<g>
		<path d="M104.005,160.01c-17.648,0-32,14.352-32,32s14.352,32,32,32s32-14.352,32-32S121.653,160.01,104.005,160.01z
			 M104.005,208.01c-8.824,0-16-7.176-16-16c0-8.824,7.176-16,16-16s16,7.176,16,16C120.005,200.834,112.829,208.01,104.005,208.01z
			"/>
	</g>
</g>
<g>
	<g>
		<path d="M272.005,320.01c-13.232,0-24,10.768-24,24s10.768,24,24,24s24-10.768,24-24S285.237,320.01,272.005,320.01z
			 M272.005,352.01c-4.416,0-8-3.584-8-8c0-4.416,3.584-8,8-8c4.416,0,8,3.584,8,8C280.005,348.426,276.421,352.01,272.005,352.01z"
			/>
	</g>
</g>
<g>
	<g>
		<path d="M376.005,152.01c-17.648,0-32,14.352-32,32s14.352,32,32,32s32-14.352,32-32S393.653,152.01,376.005,152.01z
			 M376.005,200.01c-8.824,0-16-7.176-16-16c0-8.824,7.176-16,16-16c8.824,0,16,7.176,16,16
			C392.005,192.834,384.829,200.01,376.005,200.01z"/>
	</g>
</g>
<g>
	<g>
		<path d="M400.005,360.01c-13.232,0-24,10.768-24,24s10.768,24,24,24s24-10.768,24-24S413.237,360.01,400.005,360.01z
			 M400.005,392.01c-4.416,0-8-3.584-8-8c0-4.416,3.584-8,8-8c4.416,0,8,3.584,8,8C408.005,388.426,404.421,392.01,400.005,392.01z"
			/>
	</g>
</g>
<g>
	<g>
		<path d="M104.005,400.01c-22.056,0-40,17.944-40,40c0,22.056,17.944,40,40,40c22.056,0,40-17.944,40-40
			C144.005,417.954,126.061,400.01,104.005,400.01z M104.005,464.01c-13.232,0-24-10.768-24-24s10.768-24,24-24s24,10.768,24,24
			S117.237,464.01,104.005,464.01z"/>
	</g>
</g>
<g>
	<g>
		<polygon points="117.661,325.666 106.349,314.354 96.005,324.698 85.661,314.354 74.349,325.666 84.693,336.01 74.349,346.354 
			85.661,357.666 96.005,347.322 106.349,357.666 117.661,346.354 107.317,336.01 		"/>
	</g>
</g>
<g>
	<g>
		<polygon points="173.661,245.666 162.349,234.354 152.005,244.698 141.661,234.354 130.349,245.666 140.693,256.01 
			130.349,266.354 141.661,277.666 152.005,267.322 162.349,277.666 173.661,266.354 163.317,256.01 		"/>
	</g>
</g>
<g>
	<g>
		<polygon points="213.661,173.666 202.349,162.354 192.005,172.698 181.661,162.354 170.349,173.666 180.693,184.01 
			170.349,194.354 181.661,205.666 192.005,195.322 202.349,205.666 213.661,194.354 203.317,184.01 		"/>
	</g>
</g>
<g>
	<g>
		<polygon points="381.661,445.666 370.349,434.354 360.005,444.698 349.661,434.354 338.349,445.666 348.693,456.01 
			338.349,466.354 349.661,477.666 360.005,467.322 370.349,477.666 381.661,466.354 371.317,456.01 		"/>
	</g>
</g>
<g>
	<g>
		<path d="M232.005,416.01h-16v-16c0-4.424-3.576-8-8-8h-16v-16h-16v24c0,4.424,3.576,8,8,8h16v16c0,4.424,3.576,8,8,8h16v16h16v-24
			C240.005,419.586,236.429,416.01,232.005,416.01z"/>
	</g>
</g>
<g>
	<g>
		<path d="M272.005,176.01c-4.424,0-8,3.576-8,8v16h-16c-4.424,0-8,3.576-8,8v16h-16v16h24c4.424,0,8-3.576,8-8v-16h16
			c4.424,0,8-3.576,8-8v-16h16v-16H272.005z"/>
	</g>
</g>
<g>
	<g>
		<rect x="152.005" y="304.01" width="16" height="16"/>
	</g>
</g>
<g>
	<g>
		<rect x="200.005" y="320.01" width="16" height="16"/>
	</g>
</g>
<g>
	<g>
		<rect x="80.005" y="264.01" width="16" height="16"/>
	</g>
</g>
<g>
	<g>
		<rect x="256.005" y="264.01" width="16" height="16"/>
	</g>
</g>
<g>
	<g>
		<rect x="168.005" y="464.01" width="16" height="16"/>
	</g>
</g>
<g>
	<g>
		<rect x="344.005" y="304.01" width="16" height="16"/>
	</g>
</g>
<g>
	<g>
		<rect x="384.005" y="256.01" width="16" height="16"/>
	</g>
</g>
<g>
	<g>
		<rect x="424.005" y="152.01" width="16" height="16"/>
	</g>
</g>
<g>
	<g>
		<rect x="336.005" y="232.01" width="16" height="16"/>
	</g>
</g>
<g>
	<g>
		<rect x="424.005" y="232.01" width="16" height="56"/>
	</g>
</g>
<g>
	<g>
		<rect x="408.005" y="312.01" width="16" height="16"/>
	</g>
</g>
<g>
	<g>
		<rect x="432.005" y="456.01" width="16" height="16"/>
	</g>
</g>
</svg>
