<?xml version="1.0" encoding="iso-8859-1"?>
<!-- Generator: Adobe Illustrator 19.0.0, SVG Export Plug-In . SVG Version: 6.00 Build 0)  -->
<svg xmlns="http://www.w3.org/2000/svg" xmlns:xlink="http://www.w3.org/1999/xlink" version="1.1" id="Capa_1" x="0px" y="0px" viewBox="0 0 512 512" style="enable-background:new 0 0 512 512;" xml:space="preserve" width="512px" height="512px">
<g>
	<g>
		<path d="M504.485,343.671c4.151,0,7.515-3.364,7.515-10.521V136.767c0-1.145-3.364-4.509-7.515-4.509h-96.188    c-4.151,0-7.515,3.364-7.515,7.515v149.793H247.984c-4.151,0-7.515,3.364-7.515,7.515v43.084c0,1.259,0.316,2.498,0.921,3.604    l0.185,0.348c6.437,12.118,31.126,51.657,78.549,51.657h82.757l22.334,67.003c1.023,3.069,3.895,5.138,7.129,5.138h72.141    c4.151,0,7.515-3.364,7.515-7.515v-85.166c0-4.151-3.364-7.515-7.515-7.515c-4.151,0-7.515,3.364-7.515,7.515v77.652H437.76    l-22.334-67.003c-1.023-3.069-3.895-5.138-7.129-5.138h-88.172c-37.63,0-58.307-31.06-64.626-42.479v-33.67h241.472v31.562    C496.971,340.308,500.334,343.671,504.485,343.671z M415.812,289.566V147.288h81.159v142.278H415.812z" fill="#0f0d0f"/>
	</g>
</g>
<g>
	<g>
		<path d="M464.407,172.337h-32.063c-4.151,0-7.515,3.364-7.515,7.515s3.364,7.515,7.515,7.515h10.117    c-1.029,2.643-1.6,5.514-1.6,8.517c0,12.983,10.563,23.546,23.546,23.546s23.546-10.563,23.546-23.546    C487.953,182.899,477.39,172.337,464.407,172.337z M464.407,204.399c-4.696,0-8.517-3.82-8.517-8.517s3.82-8.517,8.517-8.517    s8.517,3.82,8.517,8.517S469.103,204.399,464.407,204.399z" fill="#0f0d0f"/>
	</g>
</g>
<g>
	<g>
		<path d="M325.763,148.675c-10.073,3.36-23.975-2.19-37.417-7.556c-14.014-5.595-28.504-11.378-41.837-8.715    c-24.468,4.894-33.537,20.345-36.837,32.444c-2.991,10.965-1.695,21.044-1.247,23.778c0.41,25.892,21.587,46.832,47.575,46.832    c25.066,0,45.653-19.482,47.451-44.098c14.629-7.011,25.326-17.968,31.597-32.598    C337.552,152.921,331.785,146.673,325.763,148.675z M256,220.431c-14.606,0-26.996-9.666-31.111-22.937    c7.959,1.445,19.538,3.011,32.371,3.011c1.99,0,4.011-0.038,6.053-0.119c8.622-0.345,16.596-1.446,23.903-3.266    C283.22,210.581,270.742,220.431,256,220.431z M222.83,181.753c-0.148-3.423,0.017-8.336,1.466-13.388    c3.314-11.558,11.544-18.5,25.161-21.223c8.953-1.795,21.339,3.154,33.317,7.935c10.397,4.151,21.023,8.393,31.398,9.433    C290.531,193.19,238.98,185.138,222.83,181.753z" fill="#0f0d0f"/>
	</g>
</g>
<g>
	<g>
		<path d="M336.157,244.477h-95.738c-9.768-7.912-49.838-40.359-53.543-43.208c-4.985-3.836-11.167-5.501-17.402-4.687    c-6.146,0.802-11.623,3.915-15.449,8.776L69.33,301.373c-0.111,0.125-0.219,0.256-0.321,0.389    c-6.615,8.599-10.956,31.572-3.621,42.571c11.88,17.822,40.641,56.692,55.385,76.489H23.546C10.563,420.822,0,431.385,0,444.368    c0,12.983,10.563,23.546,23.546,23.546h144.282c12.662,0,23.352-10.443,23.564-23.144c0.063-3.781-0.814-7.552-2.504-10.932    l-49.66-99.319l54.036-64.469l23.924,16.314c4.175,3.361,9.402,5.205,14.766,5.205h104.203v0.001    c12.983,0,23.546-10.563,23.546-23.546C359.703,255.04,349.14,244.477,336.157,244.477z M175.446,440.559    c2.789,5.577-1.405,12.325-7.618,12.325H23.546c-4.696,0-8.517-3.82-8.517-8.517c0-4.696,3.82-8.517,8.517-8.517h112.219    c6.065,0,9.658-7.161,6.012-12.023c-0.48-0.64-48.152-64.232-63.885-87.833c-2.721-4.08-0.868-19.713,2.903-24.903l7.157-8.113    l34.483,34.483c0.662,0.662,1.421,1.166,2.226,1.53L175.446,440.559z M296.579,276.54h-64.626c-1.988,0-3.925-0.701-5.454-1.975    c-0.185-0.153-0.377-0.3-0.575-0.435l-29.815-20.332c-3.191-2.174-7.513-1.579-9.994,1.382l-56.863,67.843l-31.338-31.338    l67.533-76.558c0.111-0.126,0.219-0.257,0.322-0.39c1.387-1.804,3.393-2.958,5.649-3.252c2.252-0.297,4.489,0.307,6.293,1.695    c3.189,2.452,37.577,30.279,55.315,44.65c1.339,1.084,3.009,1.676,4.731,1.676h58.822V276.54z M336.157,276.54h-24.548v-17.033    h24.548c4.696,0,8.517,3.82,8.517,8.517C344.673,272.72,340.853,276.54,336.157,276.54z" fill="#0f0d0f"/>
	</g>
</g>
<g>
	<g>
		<path d="M239.969,44.086c-12.983,0-23.546,10.563-23.546,23.546c0,12.983,10.563,23.546,23.546,23.546    s23.546-10.563,23.546-23.546C263.515,54.649,252.952,44.086,239.969,44.086z M239.969,76.149c-4.696,0-8.517-3.82-8.517-8.517    s3.82-8.517,8.517-8.517s8.517,3.82,8.517,8.517S244.665,76.149,239.969,76.149z" fill="#0f0d0f"/>
	</g>
</g>
<g>
	<g>
		<path d="M360.203,156.305c-12.983,0-23.546,10.563-23.546,23.546s10.563,23.546,23.546,23.546    c12.983,0,23.546-10.563,23.546-23.546C383.75,166.868,373.187,156.305,360.203,156.305z M360.203,188.368    c-4.696,0-8.517-3.82-8.517-8.517s3.82-8.517,8.517-8.517c4.696,0,8.517,3.82,8.517,8.517S364.9,188.368,360.203,188.368z" fill="#0f0d0f"/>
	</g>
</g>
<g>
	<g>
		<path d="M111.718,124.243c-12.983,0-23.546,10.563-23.546,23.546s10.563,23.546,23.546,23.546s23.546-10.563,23.546-23.546    C135.264,134.805,124.702,124.243,111.718,124.243z M111.718,156.305c-4.696,0-8.517-3.82-8.517-8.517s3.82-8.517,8.517-8.517    s8.517,3.82,8.517,8.517S116.414,156.305,111.718,156.305z" fill="#0f0d0f"/>
	</g>
</g>
<g>
	<g>
		<path d="M328.141,100.196h-8.517v-8.517c0-4.151-3.364-7.515-7.515-7.515c-4.151,0-7.515,3.364-7.515,7.515v8.517h-8.517    c-4.151,0-7.515,3.364-7.515,7.515c0,4.151,3.364,7.515,7.515,7.515h8.517v8.517c0,4.151,3.364,7.515,7.515,7.515    c4.151,0,7.515-3.364,7.515-7.515v-8.517h8.517c4.151,0,7.515-3.364,7.515-7.515C335.656,103.559,332.292,100.196,328.141,100.196    z" fill="#0f0d0f"/>
	</g>
</g>
<g>
	<g>
		<path d="M199.89,124.243h-8.517v-8.517c0-4.151-3.364-7.515-7.515-7.515c-4.151,0-7.515,3.364-7.515,7.515v8.517h-8.517    c-4.151,0-7.515,3.364-7.515,7.515c0,4.151,3.364,7.515,7.515,7.515h8.517v8.517c0,4.151,3.364,7.515,7.515,7.515    c4.151,0,7.515-3.364,7.515-7.515v-8.517h8.517c4.151,0,7.515-3.364,7.515-7.515S204.042,124.243,199.89,124.243z" fill="#0f0d0f"/>
	</g>
</g>
</svg>
